<svg xmlns="http://www.w3.org/2000/svg" viewBox="0 0 192 90"><defs><style>.cls-1{fill:#d6fcd8;}</style></defs><g id="Layer_2" data-name="Layer 2"><g id="Layer_1-2" data-name="Layer 1"><polygon class="cls-1" points="0 57 30 57 30 63 0 63 0 90 60 90 60 33 30 33 30 27 60 27 60 0 0 0 0 57"/><polygon class="cls-1" points="168 0 168 30 156 0 132 0 132 90 156 90 156 60 168 90 192 90 192 0 168 0"/><path class="cls-1" d="M66,90H90V61.14a18.16,18.16,0,0,0,12,0V90h24V0H66Zm36-69.34c-2,1.81-6.94,5.87-6.26,8.88-.58-2,6.24-6.66,6.37-6.47,5.37,8.07,4.7,21,1.6,29.67C102.11,57.2,93.19,56.21,90,54.3c-1.78-1.06-2.24-5.3-2.69-7.18A39.39,39.39,0,0,1,86.1,38.9c-.13-5.56,1.59-10.94,6-14.58A16.84,16.84,0,0,1,102,20.66Z"/></g></g></svg>